# xmcd
#
# Track frame offsets: 
#        300
#        17674
#        38778
#        57985
#        71910
#        96744
#        112730
#        144625
#        187037
#        199669
#        236211
#        256084
#        272392
#
# Disc length: 3804 seconds
#
# Revision: 5
# Processed by: cddbd v1.5.2PL0 Copyright (c) Steve Scherf et al.
# Submitted via: ExactAudioCopy v0.99pb4
#
DISCID=bf0ed80d
DTITLE=Joe Satriani - G3 - Rockin' In The Free World [CD1)
DYEAR=2003
DGENRE=Instrumental Rock
TTITLE0=The Extremist (Joe Satriani)
TTITLE1=Crystal Planet (Joe Satriani)
TTITLE2=Always With Me, Always With You (Joe Satriani)
TTITLE3=Midnight (Joe Satriani)
TTITLE4=The Mystical Potato Head Groove Thing (Joe Satriani)
TTITLE5=You're Here (Joe Satriani)
TTITLE6=Reaping (Steve Vai)
TTITLE7=Whispering A Prayer (Steve Vai)
TTITLE8=Blitzkrieg (Yngwie Malmsteen)
TTITLE9=Trilogy Suite Op. 5, The First Movement (Yngwie Malmsteen)
TTITLE10=Red House (Yngwie Malmsteen)
TTITLE11=Fugue (Concerto Suite For Electric Guitar And Orchestra In E 
TTITLE11=Flat Minor Op. 1) (Yngwie Malmsteen)
TTITLE12=Finale (Yngwie Malmsteen)
EXTD=YEAR: 2004
EXTT0=
EXTT1=
EXTT2=
EXTT3=
EXTT4=
EXTT5=
EXTT6=
EXTT7=
EXTT8=
EXTT9=
EXTT10=
EXTT11=
EXTT12=
PLAYORDER=
